<?xml version="1.0" standalone="no"?>
<!DOCTYPE svg PUBLIC "-//W3C//DTD SVG 20010904//EN"
 "http://www.w3.org/TR/2001/REC-SVG-20010904/DTD/svg10.dtd">
<svg version="1.0" xmlns="http://www.w3.org/2000/svg"
 width="606.000000pt" height="606.000000pt" viewBox="0 0 606.000000 606.000000"
 preserveAspectRatio="xMidYMid meet">
<metadata>
Created by potrace 1.11, written by Peter Selinger 2001-2013
</metadata>
<g transform="translate(0.000000,606.000000) scale(0.100000,-0.100000)"
fill="#000000" stroke="none">
<path d="M1720 3030 l0 -1740 300 0 300 0 0 670 0 670 338 0 337 0 349 -670
348 -670 319 0 c255 0 321 3 325 13 4 11 -189 379 -421 802 -18 33 -83 155
-145 270 -62 116 -135 252 -162 303 -28 51 -49 94 -47 96 2 2 38 20 79 41 107
53 184 108 268 189 145 140 233 308 268 513 22 131 15 381 -15 501 -110 439
-460 693 -1026 741 -67 6 -405 11 -767 11 l-648 0 0 -1740z m1465 1226 c218
-64 346 -198 389 -408 68 -329 -74 -597 -368 -695 l-81 -27 -402 -4 -403 -3 0
581 0 581 403 -4 c345 -3 410 -6 462 -21z"/>
</g>
</svg>
